<svg xmlns="http://www.w3.org/2000/svg" width="100" height="94" viewBox="0 0 100 94"><defs><linearGradient id="paper" x1="0" y1="0" x2="0.1" y2="1"><stop stop-color="#d1ad70"/><stop offset=".11" stop-color="#ead2a0"/><stop offset=".28" stop-color="#f5e5bf"/><stop offset=".70" stop-color="#f3e0b6"/><stop offset=".88" stop-color="#e1c18a"/><stop offset="1" stop-color="#bb9056"/></linearGradient><clipPath id="cut"><path d="M0 4 15 3 31 5 47 3 64 4 83 2 100 4 L100 89 84 91 67 88 48 90 30 88 14 90 0 89Z"/></clipPath></defs><path d="M0 4 15 3 31 5 47 3 64 4 83 2 100 4 L100 89 84 91 67 88 48 90 30 88 14 90 0 89Z" transform="translate(1 3)" fill="#493022" opacity=".22"/><path d="M0 4 15 3 31 5 47 3 64 4 83 2 100 4 L100 89 84 91 67 88 48 90 30 88 14 90 0 89Z" fill="url(#paper)" stroke="#aa814c" stroke-width=".8"/><g clip-path="url(#cut)"><path d="M79.5 28.2l2.2 0.2" stroke="#93764e" stroke-width=".25" opacity=".19"/><path d="M72.1 14.3l3.5 0.5" stroke="#93764e" stroke-width=".25" opacity=".19"/><path d="M32.6 32.7l2.0 -0.7" stroke="#93764e" stroke-width=".25" opacity=".19"/><path d="M62.2 53.6l3.1 -0.9" stroke="#93764e" stroke-width=".25" opacity=".19"/><path d="M19.1 14.8l1.3 -0.4" stroke="#93764e" stroke-width=".25" opacity=".19"/><path d="M81.6 23.8l1.9 0.4" stroke="#93764e" stroke-width=".25" opacity=".19"/><path d="M23.4 9.1l2.7 0.7" stroke="#93764e" stroke-width=".25" opacity=".19"/><path d="M80.5 9.0l2.9 0.2" stroke="#93764e" stroke-width=".25" opacity=".19"/><path d="M82.4 68.2l2.3 0.4" stroke="#93764e" stroke-width=".25" opacity=".19"/><path d="M86.3 58.5l3.4 -1.0" stroke="#93764e" stroke-width=".25" opacity=".19"/><path d="M27.0 9.5l3.3 0.6" stroke="#93764e" stroke-width=".25" opacity=".19"/><path d="M25.7 9.9l1.5 -0.4" stroke="#93764e" stroke-width=".25" opacity=".19"/><path d="M8.8 32.1l3.7 0.5" stroke="#93764e" stroke-width=".25" opacity=".19"/><path d="M47.9 51.4l3.2 -0.2" stroke="#93764e" stroke-width=".25" opacity=".19"/><path d="M26.3 35.3l2.5 -0.5" stroke="#93764e" stroke-width=".25" opacity=".19"/><path d="M21.4 66.5l3.0 0.5" stroke="#93764e" stroke-width=".25" opacity=".19"/><path d="M46.0 42.6l1.5 -0.2" stroke="#93764e" stroke-width=".25" opacity=".19"/><path d="M11.4 28.2l2.2 0.4" stroke="#93764e" stroke-width=".25" opacity=".19"/><path d="M33.7 42.7l3.5 -0.5" stroke="#93764e" stroke-width=".25" opacity=".19"/><path d="M42.5 69.1l1.4 -0.1" stroke="#93764e" stroke-width=".25" opacity=".19"/><path d="M17.3 69.8l4.0 -0.7" stroke="#93764e" stroke-width=".25" opacity=".19"/><path d="M48.8 68.8l2.8 0.2" stroke="#93764e" stroke-width=".25" opacity=".19"/><path d="M52.9 28.3l1.6 0.1" stroke="#93764e" stroke-width=".25" opacity=".19"/><path d="M64.0 51.0l3.8 0.4" stroke="#93764e" stroke-width=".25" opacity=".19"/><path d="M39.4 25.0l2.1 0.6" stroke="#93764e" stroke-width=".25" opacity=".19"/><path d="M89.6 22.7l2.6 0.2" stroke="#93764e" stroke-width=".25" opacity=".19"/><path d="M36.2 42.1l3.3 -0.9" stroke="#93764e" stroke-width=".25" opacity=".19"/><path d="M35.6 57.8l3.7 0.6" stroke="#93764e" stroke-width=".25" opacity=".19"/><path d="M67.3 44.3l2.0 0.3" stroke="#93764e" stroke-width=".25" opacity=".19"/><path d="M46.7 82.3l2.3 0.2" stroke="#93764e" stroke-width=".25" opacity=".19"/><path d="M59.0 11.5l2.9 0.0" stroke="#93764e" stroke-width=".25" opacity=".19"/><path d="M32.1 70.6l3.0 -0.3" stroke="#93764e" stroke-width=".25" opacity=".19"/><path d="M57.5 68.9l4.0 -0.1" stroke="#93764e" stroke-width=".25" opacity=".19"/><path d="M73.9 65.1l1.5 0.3" stroke="#93764e" stroke-width=".25" opacity=".19"/><path d="M86.2 60.0l2.7 -0.9" stroke="#93764e" stroke-width=".25" opacity=".19"/><path d="M67.2 8.1l2.6 -0.2" stroke="#93764e" stroke-width=".25" opacity=".19"/><path d="M84.4 46.5l3.4 -0.4" stroke="#93764e" stroke-width=".25" opacity=".19"/><path d="M22.4 75.9l4.0 -0.1" stroke="#93764e" stroke-width=".25" opacity=".19"/><path d="M93.5 60.3l2.9 -0.9" stroke="#93764e" stroke-width=".25" opacity=".19"/><path d="M49.3 12.8l1.5 0.6" stroke="#93764e" stroke-width=".25" opacity=".19"/><path d="M14.1 65.4l1.4 -0.6" stroke="#93764e" stroke-width=".25" opacity=".19"/><path d="M38.1 38.1l2.7 0.5" stroke="#93764e" stroke-width=".25" opacity=".19"/><path d="M94.0 19.6l1.3 -0.8" stroke="#93764e" stroke-width=".25" opacity=".19"/><path d="M25.5 54.1l2.3 -0.0" stroke="#93764e" stroke-width=".25" opacity=".19"/><path d="M41.6 30.4l2.7 -0.4" stroke="#93764e" stroke-width=".25" opacity=".19"/><path d="M39.2 14.6l3.7 0.4" stroke="#93764e" stroke-width=".25" opacity=".19"/><path d="M71.3 46.4l2.0 0.9" stroke="#93764e" stroke-width=".25" opacity=".19"/><path d="M47.6 60.6l3.1 -0.5" stroke="#93764e" stroke-width=".25" opacity=".19"/><path d="M74.4 81.4l2.4 0.4" stroke="#93764e" stroke-width=".25" opacity=".19"/><path d="M52.9 41.6l3.9 0.8" stroke="#93764e" stroke-width=".25" opacity=".19"/><path d="M56.6 37.8l2.4 0.7" stroke="#93764e" stroke-width=".25" opacity=".19"/><path d="M68.6 59.0l1.2 0.6" stroke="#93764e" stroke-width=".25" opacity=".19"/><path d="M76.4 17.0l1.3 0.2" stroke="#93764e" stroke-width=".25" opacity=".19"/><path d="M31.0 9.5l1.0 1.0" stroke="#93764e" stroke-width=".25" opacity=".19"/><path d="M53.2 19.9l3.1 -0.4" stroke="#93764e" stroke-width=".25" opacity=".19"/><path d="M10.2 85.2l1.2 -0.9" stroke="#93764e" stroke-width=".25" opacity=".19"/><path d="M38.3 48.7l3.0 -0.3" stroke="#93764e" stroke-width=".25" opacity=".19"/><path d="M26.4 24.2l3.5 -0.5" stroke="#93764e" stroke-width=".25" opacity=".19"/><path d="M65.6 34.9l1.1 -0.2" stroke="#93764e" stroke-width=".25" opacity=".19"/><path d="M65.0 34.9l3.3 0.7" stroke="#93764e" stroke-width=".25" opacity=".19"/><path d="M85.7 18.3l3.1 0.5" stroke="#93764e" stroke-width=".25" opacity=".19"/><path d="M16.5 77.2l3.5 0.6" stroke="#93764e" stroke-width=".25" opacity=".19"/><path d="M22.5 46.2l1.4 0.5" stroke="#93764e" stroke-width=".25" opacity=".19"/><path d="M52.7 31.5l2.5 -0.2" stroke="#93764e" stroke-width=".25" opacity=".19"/><path d="M10.8 16.5l1.4 0.1" stroke="#93764e" stroke-width=".25" opacity=".19"/><path d="M33.3 61.9l1.6 -0.7" stroke="#93764e" stroke-width=".25" opacity=".19"/><path d="M64.0 25.4l3.8 -0.1" stroke="#93764e" stroke-width=".25" opacity=".19"/><path d="M14.2 28.8l3.9 -1.0" stroke="#93764e" stroke-width=".25" opacity=".19"/><path d="M35.5 83.6l3.2 -0.7" stroke="#93764e" stroke-width=".25" opacity=".19"/><path d="M94.2 68.7l2.0 0.1" stroke="#93764e" stroke-width=".25" opacity=".19"/><path d="M76.3 64.1l1.4 -0.4" stroke="#93764e" stroke-width=".25" opacity=".19"/><path d="M54.8 51.9l3.4 0.9" stroke="#93764e" stroke-width=".25" opacity=".19"/><path d="M47.9 28.7l2.4 0.9" stroke="#93764e" stroke-width=".25" opacity=".19"/><path d="M50.5 42.6l1.2 0.0" stroke="#93764e" stroke-width=".25" opacity=".19"/><path d="M93.5 24.9l4.0 0.8" stroke="#93764e" stroke-width=".25" opacity=".19"/><path d="M88.8 30.9l2.3 0.3" stroke="#93764e" stroke-width=".25" opacity=".19"/><path d="M67.4 80.6l1.5 0.8" stroke="#93764e" stroke-width=".25" opacity=".19"/><path d="M53.5 71.1l1.4 -0.7" stroke="#93764e" stroke-width=".25" opacity=".19"/><path d="M29.6 75.2l1.7 -0.6" stroke="#93764e" stroke-width=".25" opacity=".19"/><path d="M14.2 71.2l3.1 -0.6" stroke="#93764e" stroke-width=".25" opacity=".19"/><path d="M5.3 53.3l1.2 -0.5" stroke="#93764e" stroke-width=".25" opacity=".19"/><path d="M78.4 12.8l1.7 -0.8" stroke="#93764e" stroke-width=".25" opacity=".19"/><path d="M51.7 22.5l1.4 0.8" stroke="#93764e" stroke-width=".25" opacity=".19"/><path d="M82.4 47.4l1.4 0.5" stroke="#93764e" stroke-width=".25" opacity=".19"/><path d="M80.4 15.6l3.1 0.3" stroke="#93764e" stroke-width=".25" opacity=".19"/><path d="M46.2 24.4l1.1 0.9" stroke="#93764e" stroke-width=".25" opacity=".19"/><path d="M88.2 33.3l2.6 1.0" stroke="#93764e" stroke-width=".25" opacity=".19"/><path d="M61.9 23.1l3.3 0.4" stroke="#93764e" stroke-width=".25" opacity=".19"/><path d="M36.2 18.2l1.8 -0.4" stroke="#93764e" stroke-width=".25" opacity=".19"/><path d="M25.5 27.9l1.0 -0.0" stroke="#93764e" stroke-width=".25" opacity=".19"/><path d="M75.7 55.2l1.3 0.1" stroke="#93764e" stroke-width=".25" opacity=".19"/><path d="M29.7 11.4l1.9 0.7" stroke="#93764e" stroke-width=".25" opacity=".19"/><path d="M17.5 8.1l2.9 0.8" stroke="#93764e" stroke-width=".25" opacity=".19"/><path d="M38.3 62.7l3.3 -0.5" stroke="#93764e" stroke-width=".25" opacity=".19"/><path d="M92.2 55.8l3.6 0.5" stroke="#93764e" stroke-width=".25" opacity=".19"/><path d="M11.6 70.8l2.3 0.9" stroke="#93764e" stroke-width=".25" opacity=".19"/><path d="M61.9 20.4l1.6 0.0" stroke="#93764e" stroke-width=".25" opacity=".19"/><path d="M42.1 78.0l2.2 0.9" stroke="#93764e" stroke-width=".25" opacity=".19"/><path d="M45.5 14.5l1.6 -0.0" stroke="#93764e" stroke-width=".25" opacity=".19"/><path d="M24.0 53.8l1.0 -0.3" stroke="#93764e" stroke-width=".25" opacity=".19"/><path d="M17.6 47.8l3.5 -0.4" stroke="#93764e" stroke-width=".25" opacity=".19"/><path d="M51.2 78.4l1.9 0.3" stroke="#93764e" stroke-width=".25" opacity=".19"/><path d="M11.5 84.1l2.5 0.4" stroke="#93764e" stroke-width=".25" opacity=".19"/><path d="M19.4 10.9l2.7 0.9" stroke="#93764e" stroke-width=".25" opacity=".19"/><path d="M18.7 8.7l2.3 0.7" stroke="#93764e" stroke-width=".25" opacity=".19"/><path d="M38.0 21.0l1.5 0.5" stroke="#93764e" stroke-width=".25" opacity=".19"/><path d="M84.7 39.0l2.9 0.4" stroke="#93764e" stroke-width=".25" opacity=".19"/><path d="M70.3 61.8l2.2 0.8" stroke="#93764e" stroke-width=".25" opacity=".19"/><path d="M78.2 84.0l3.2 -0.8" stroke="#93764e" stroke-width=".25" opacity=".19"/><path d="M89.6 54.3l3.8 0.2" stroke="#93764e" stroke-width=".25" opacity=".19"/><path d="M75.0 75.6l2.0 0.8" stroke="#93764e" stroke-width=".25" opacity=".19"/><path d="M85.1 14.6l3.0 0.4" stroke="#93764e" stroke-width=".25" opacity=".19"/><path d="M93.1 78.5l2.9 0.3" stroke="#93764e" stroke-width=".25" opacity=".19"/><path d="M89.2 81.8l3.1 0.2" stroke="#93764e" stroke-width=".25" opacity=".19"/><path d="M32.2 22.2l2.8 0.0" stroke="#93764e" stroke-width=".25" opacity=".19"/><path d="M85.6 81.2l1.0 0.4" stroke="#93764e" stroke-width=".25" opacity=".19"/><path d="M12.2 48.3l1.3 0.5" stroke="#93764e" stroke-width=".25" opacity=".19"/><path d="M21.8 47.1l2.4 0.6" stroke="#93764e" stroke-width=".25" opacity=".19"/><path d="M38.0 9.7l2.7 -0.6" stroke="#93764e" stroke-width=".25" opacity=".19"/><path d="M83.2 34.2l3.6 0.4" stroke="#93764e" stroke-width=".25" opacity=".19"/><path d="M30.9 59.6l1.9 -0.5" stroke="#93764e" stroke-width=".25" opacity=".19"/><path d="M55.0 48.2l1.9 -1.0" stroke="#93764e" stroke-width=".25" opacity=".19"/><path d="M32.7 43.9l2.8 -0.0" stroke="#93764e" stroke-width=".25" opacity=".19"/><path d="M84.2 65.3l1.4 -0.7" stroke="#93764e" stroke-width=".25" opacity=".19"/><path d="M80.9 39.8l1.3 0.7" stroke="#93764e" stroke-width=".25" opacity=".19"/><path d="M62.0 85.1l2.2 1.0" stroke="#93764e" stroke-width=".25" opacity=".19"/><path d="M57.9 53.8l3.5 -0.9" stroke="#93764e" stroke-width=".25" opacity=".19"/><path d="M51.5 38.5l2.9 -0.4" stroke="#93764e" stroke-width=".25" opacity=".19"/><path d="M43.5 22.0l1.4 -0.2" stroke="#93764e" stroke-width=".25" opacity=".19"/><path d="M42.9 12.7l2.6 0.5" stroke="#93764e" stroke-width=".25" opacity=".19"/><path d="M33.3 60.9l3.6 -0.4" stroke="#93764e" stroke-width=".25" opacity=".19"/><path d="M30.0 12.1l2.0 -0.0" stroke="#93764e" stroke-width=".25" opacity=".19"/><path d="M40.0 45.9l1.2 0.7" stroke="#93764e" stroke-width=".25" opacity=".19"/><path d="M60.3 79.2l1.8 -0.0" stroke="#93764e" stroke-width=".25" opacity=".19"/><path d="M19.4 61.3l3.4 -0.3" stroke="#93764e" stroke-width=".25" opacity=".19"/><path d="M58.9 58.8l3.6 -0.3" stroke="#93764e" stroke-width=".25" opacity=".19"/><path d="M76.3 40.0l2.8 0.3" stroke="#93764e" stroke-width=".25" opacity=".19"/><path d="M14.8 10.4l2.0 -0.6" stroke="#93764e" stroke-width=".25" opacity=".19"/><path d="M15.5 42.5l3.5 1.0" stroke="#93764e" stroke-width=".25" opacity=".19"/><path d="M79.0 14.9l1.9 -0.3" stroke="#93764e" stroke-width=".25" opacity=".19"/><path d="M93.3 37.9l2.8 0.7" stroke="#93764e" stroke-width=".25" opacity=".19"/><path d="M48.9 51.6l1.5 0.8" stroke="#93764e" stroke-width=".25" opacity=".19"/><path d="M41.8 25.4l3.6 0.9" stroke="#93764e" stroke-width=".25" opacity=".19"/><path d="M38.6 83.4l1.9 -1.0" stroke="#93764e" stroke-width=".25" opacity=".19"/><path d="M61.6 19.2l3.7 0.4" stroke="#93764e" stroke-width=".25" opacity=".19"/><path d="M73.7 42.4l3.7 -0.6" stroke="#93764e" stroke-width=".25" opacity=".19"/><path d="M24.3 54.3l1.1 -0.8" stroke="#93764e" stroke-width=".25" opacity=".19"/><path d="M67.5 54.0l3.9 0.6" stroke="#93764e" stroke-width=".25" opacity=".19"/><path d="M90.7 20.5l1.7 0.6" stroke="#93764e" stroke-width=".25" opacity=".19"/><path d="M34.6 12.5l2.6 0.2" stroke="#93764e" stroke-width=".25" opacity=".19"/><path d="M36.8 69.5l1.8 0.3" stroke="#93764e" stroke-width=".25" opacity=".19"/><path d="M53.0 86.0l2.5 0.1" stroke="#93764e" stroke-width=".25" opacity=".19"/><path d="M22.5 62.9l1.8 0.0" stroke="#93764e" stroke-width=".25" opacity=".19"/><path d="M45.9 46.9l3.0 -0.4" stroke="#93764e" stroke-width=".25" opacity=".19"/><path d="M50.7 45.6l3.6 0.5" stroke="#93764e" stroke-width=".25" opacity=".19"/><path d="M68.8 52.7l3.6 -0.5" stroke="#93764e" stroke-width=".25" opacity=".19"/><path d="M51.1 64.7l3.8 0.8" stroke="#93764e" stroke-width=".25" opacity=".19"/><path d="M70.3 62.4l2.7 0.0" stroke="#93764e" stroke-width=".25" opacity=".19"/><path d="M15.8 52.1l1.7 -0.3" stroke="#93764e" stroke-width=".25" opacity=".19"/><path d="M55.6 82.2l1.0 -0.0" stroke="#93764e" stroke-width=".25" opacity=".19"/><path d="M41.2 34.7l2.2 -0.7" stroke="#93764e" stroke-width=".25" opacity=".19"/><path d="M19.5 15.1l2.2 -0.4" stroke="#93764e" stroke-width=".25" opacity=".19"/><path d="M21.0 68.4l3.5 1.0" stroke="#93764e" stroke-width=".25" opacity=".19"/><path d="M57.6 18.1l2.2 0.5" stroke="#93764e" stroke-width=".25" opacity=".19"/><path d="M41.5 60.1l2.1 0.7" stroke="#93764e" stroke-width=".25" opacity=".19"/><path d="M29.7 79.0l3.0 -0.9" stroke="#93764e" stroke-width=".25" opacity=".19"/><path d="M12.6 11.5l3.2 0.6" stroke="#93764e" stroke-width=".25" opacity=".19"/><path d="M60.5 33.7l1.3 -0.2" stroke="#93764e" stroke-width=".25" opacity=".19"/><path d="M42.8 39.3l2.5 0.7" stroke="#93764e" stroke-width=".25" opacity=".19"/><path d="M54.7 31.0l2.0 0.8" stroke="#93764e" stroke-width=".25" opacity=".19"/><path d="M70.3 73.9l3.8 0.1" stroke="#93764e" stroke-width=".25" opacity=".19"/><path d="M82.4 7.0l2.0 0.5" stroke="#93764e" stroke-width=".25" opacity=".19"/><path d="M11.9 79.5l3.9 -0.3" stroke="#93764e" stroke-width=".25" opacity=".19"/><path d="M40.5 35.7l3.0 0.2" stroke="#93764e" stroke-width=".25" opacity=".19"/><path d="M57.6 42.3l2.9 -0.0" stroke="#93764e" stroke-width=".25" opacity=".19"/><path d="M18.3 21.7l1.8 0.2" stroke="#93764e" stroke-width=".25" opacity=".19"/><path d="M74.4 55.5l2.5 -0.9" stroke="#93764e" stroke-width=".25" opacity=".19"/><path d="M59.3 33.1l1.4 -0.6" stroke="#93764e" stroke-width=".25" opacity=".19"/><path d="M41.3 56.6l2.1 -0.2" stroke="#93764e" stroke-width=".25" opacity=".19"/><path d="M80.8 85.7l2.1 0.9" stroke="#93764e" stroke-width=".25" opacity=".19"/><path d="M73.1 8.4l2.9 -0.7" stroke="#93764e" stroke-width=".25" opacity=".19"/><path d="M57.5 80.7l1.5 0.8" stroke="#93764e" stroke-width=".25" opacity=".19"/><path d="M56.7 27.7l2.0 0.4" stroke="#93764e" stroke-width=".25" opacity=".19"/><path d="M6.4 83.1l1.6 0.3" stroke="#93764e" stroke-width=".25" opacity=".19"/><path d="M66.4 82.1l3.0 0.2" stroke="#93764e" stroke-width=".25" opacity=".19"/><path d="M63.5 31.0l1.1 0.6" stroke="#93764e" stroke-width=".25" opacity=".19"/><path d="M28.7 18.4l3.1 0.2" stroke="#93764e" stroke-width=".25" opacity=".19"/><path d="M7.6 17.8l1.4 -1.0" stroke="#93764e" stroke-width=".25" opacity=".19"/><path d="M21.4 51.6l3.3 0.7" stroke="#93764e" stroke-width=".25" opacity=".19"/><path d="M91.8 54.3l2.9 -0.8" stroke="#93764e" stroke-width=".25" opacity=".19"/><path d="M10.2 81.6l2.2 -0.5" stroke="#93764e" stroke-width=".25" opacity=".19"/><path d="M64.2 63.1l3.4 -0.4" stroke="#93764e" stroke-width=".25" opacity=".19"/><path d="M87.0 83.3l1.2 -0.1" stroke="#93764e" stroke-width=".25" opacity=".19"/><path d="M21.2 17.4l1.3 -0.8" stroke="#93764e" stroke-width=".25" opacity=".19"/><path d="M64.9 13.7l3.4 0.3" stroke="#93764e" stroke-width=".25" opacity=".19"/><path d="M69.6 71.1l2.1 1.0" stroke="#93764e" stroke-width=".25" opacity=".19"/><path d="M7.5 33.4l3.1 -0.9" stroke="#93764e" stroke-width=".25" opacity=".19"/><path d="M59.3 9.6l1.2 -0.2" stroke="#93764e" stroke-width=".25" opacity=".19"/><path d="M92.3 9.9l1.5 0.4" stroke="#93764e" stroke-width=".25" opacity=".19"/><path d="M27.7 45.2l2.1 -0.3" stroke="#93764e" stroke-width=".25" opacity=".19"/><path d="M72.1 21.8l3.5 -0.2" stroke="#93764e" stroke-width=".25" opacity=".19"/><path d="M45.6 30.6l1.5 -0.8" stroke="#93764e" stroke-width=".25" opacity=".19"/><path d="M15.1 66.5l2.2 0.4" stroke="#93764e" stroke-width=".25" opacity=".19"/><path d="M14.3 56.4l1.9 -0.5" stroke="#93764e" stroke-width=".25" opacity=".19"/><path d="M67.9 75.1l2.4 -0.7" stroke="#93764e" stroke-width=".25" opacity=".19"/><path d="M16.6 43.4l2.6 0.5" stroke="#93764e" stroke-width=".25" opacity=".19"/><path d="M30.9 18.0l3.6 -0.4" stroke="#93764e" stroke-width=".25" opacity=".19"/><path d="M12.2 54.4l2.7 0.9" stroke="#93764e" stroke-width=".25" opacity=".19"/><path d="M73.9 42.5l3.1 0.9" stroke="#93764e" stroke-width=".25" opacity=".19"/><path d="M60.0 16.6l3.8 0.5" stroke="#93764e" stroke-width=".25" opacity=".19"/><path d="M29.4 29.1l3.5 0.9" stroke="#93764e" stroke-width=".25" opacity=".19"/><path d="M65.6 69.1l3.5 -0.1" stroke="#93764e" stroke-width=".25" opacity=".19"/><path d="M43.5 52.3l2.1 0.7" stroke="#93764e" stroke-width=".25" opacity=".19"/><path d="M32.6 10.6l1.2 -0.1" stroke="#93764e" stroke-width=".25" opacity=".19"/><path d="M30.0 54.0l2.9 0.3" stroke="#93764e" stroke-width=".25" opacity=".19"/><path d="M30.4 78.3l2.8 0.6" stroke="#93764e" stroke-width=".25" opacity=".19"/><path d="M52.3 84.3l1.4 0.1" stroke="#93764e" stroke-width=".25" opacity=".19"/><path d="M90.9 83.3l1.4 1.0" stroke="#93764e" stroke-width=".25" opacity=".19"/><path d="M38.3 79.4l2.9 -0.2" stroke="#93764e" stroke-width=".25" opacity=".19"/><path d="M84.8 27.8l2.9 0.6" stroke="#93764e" stroke-width=".25" opacity=".19"/><path d="M29.1 26.4l1.7 0.2" stroke="#93764e" stroke-width=".25" opacity=".19"/><path d="M31.5 13.0l1.2 0.3" stroke="#93764e" stroke-width=".25" opacity=".19"/><path d="M72.0 29.9l2.1 0.8" stroke="#93764e" stroke-width=".25" opacity=".19"/><path d="M34.2 32.5l3.1 -0.0" stroke="#93764e" stroke-width=".25" opacity=".19"/><path d="M56.2 41.0l1.7 0.1" stroke="#93764e" stroke-width=".25" opacity=".19"/><path d="M38.3 34.4l1.8 0.5" stroke="#93764e" stroke-width=".25" opacity=".19"/><path d="M91.8 81.3l1.5 0.3" stroke="#93764e" stroke-width=".25" opacity=".19"/><path d="M15.2 80.0l2.0 -0.2" stroke="#93764e" stroke-width=".25" opacity=".19"/><path d="M13.9 52.6l3.9 0.2" stroke="#93764e" stroke-width=".25" opacity=".19"/><path d="M91.6 45.9l1.9 -0.3" stroke="#93764e" stroke-width=".25" opacity=".19"/><path d="M79.6 29.6l2.0 -0.7" stroke="#93764e" stroke-width=".25" opacity=".19"/><path d="M29.9 49.4l3.7 -0.9" stroke="#93764e" stroke-width=".25" opacity=".19"/><path d="M62.2 32.8l2.8 -0.2" stroke="#93764e" stroke-width=".25" opacity=".19"/><path d="M19.4 47.2l3.1 0.6" stroke="#93764e" stroke-width=".25" opacity=".19"/><path d="M21.9 34.6l2.5 0.4" stroke="#93764e" stroke-width=".25" opacity=".19"/><path d="M40.2 27.5l1.6 -0.2" stroke="#93764e" stroke-width=".25" opacity=".19"/><path d="M55.9 41.2l3.4 -0.1" stroke="#93764e" stroke-width=".25" opacity=".19"/><path d="M88.4 11.6l2.6 -0.2" stroke="#93764e" stroke-width=".25" opacity=".19"/><path d="M20.7 73.1l3.5 -0.2" stroke="#93764e" stroke-width=".25" opacity=".19"/><path d="M9.5 83.8l2.0 -0.4" stroke="#93764e" stroke-width=".25" opacity=".19"/><path d="M22.6 50.0l2.0 -0.3" stroke="#93764e" stroke-width=".25" opacity=".19"/><path d="M72.8 50.5l1.6 -0.8" stroke="#93764e" stroke-width=".25" opacity=".19"/><path d="M26.7 37.5l1.9 0.8" stroke="#93764e" stroke-width=".25" opacity=".19"/><path d="M35.8 23.2l3.1 -0.0" stroke="#93764e" stroke-width=".25" opacity=".19"/><path d="M63.1 83.9l3.8 -0.3" stroke="#93764e" stroke-width=".25" opacity=".19"/><path d="M45.6 74.2l2.3 1.0" stroke="#93764e" stroke-width=".25" opacity=".19"/><path d="M30.5 76.2l1.4 -0.4" stroke="#93764e" stroke-width=".25" opacity=".19"/><path d="M5.5 75.1l2.3 -0.0" stroke="#93764e" stroke-width=".25" opacity=".19"/><path d="M23.5 73.5l1.5 -0.4" stroke="#93764e" stroke-width=".25" opacity=".19"/><path d="M59.3 35.8l3.4 0.4" stroke="#93764e" stroke-width=".25" opacity=".19"/><path d="M17.3 15.5l1.6 0.5" stroke="#93764e" stroke-width=".25" opacity=".19"/><path d="M47.7 77.4l2.1 -0.5" stroke="#93764e" stroke-width=".25" opacity=".19"/><path d="M30.9 66.0l2.9 0.0" stroke="#93764e" stroke-width=".25" opacity=".19"/><path d="M65.3 10.1l1.9 -0.4" stroke="#93764e" stroke-width=".25" opacity=".19"/><path d="M11.6 23.0l2.7 0.5" stroke="#93764e" stroke-width=".25" opacity=".19"/><path d="M92.5 75.5l3.0 -0.9" stroke="#93764e" stroke-width=".25" opacity=".19"/><path d="M76.5 78.6l1.9 0.4" stroke="#93764e" stroke-width=".25" opacity=".19"/><path d="M7.4 31.1l1.4 0.8" stroke="#93764e" stroke-width=".25" opacity=".19"/><path d="M16.9 45.1l2.0 -0.8" stroke="#93764e" stroke-width=".25" opacity=".19"/><path d="M51.2 27.5l2.0 0.8" stroke="#93764e" stroke-width=".25" opacity=".19"/><circle cx="83.3" cy="82.7" r="0.72" fill="#88592c" opacity="0.28"/><circle cx="11.7" cy="6.4" r="0.54" fill="#88592c" opacity="0.21"/><circle cx="37.2" cy="83.3" r="0.87" fill="#88592c" opacity="0.16"/><circle cx="72.3" cy="10.9" r="0.95" fill="#88592c" opacity="0.18"/><circle cx="44.1" cy="81.9" r="0.75" fill="#88592c" opacity="0.21"/><circle cx="60.5" cy="10.8" r="0.52" fill="#88592c" opacity="0.32"/><circle cx="84.5" cy="82.2" r="1.05" fill="#88592c" opacity="0.32"/><circle cx="38.5" cy="5.7" r="0.43" fill="#88592c" opacity="0.19"/><circle cx="93.6" cy="10.5" r="0.63" fill="#88592c" opacity="0.13"/><circle cx="83.0" cy="8.1" r="0.33" fill="#88592c" opacity="0.34"/><circle cx="82.5" cy="81.1" r="0.28" fill="#88592c" opacity="0.29"/><circle cx="18.9" cy="83.3" r="0.29" fill="#88592c" opacity="0.31"/><circle cx="53.5" cy="85.2" r="0.65" fill="#88592c" opacity="0.26"/><circle cx="28.9" cy="82.0" r="0.53" fill="#88592c" opacity="0.30"/><circle cx="21.6" cy="12.1" r="0.67" fill="#88592c" opacity="0.29"/><circle cx="34.8" cy="7.2" r="0.72" fill="#88592c" opacity="0.21"/><circle cx="69.7" cy="86.2" r="0.47" fill="#88592c" opacity="0.19"/><circle cx="17.8" cy="82.5" r="0.44" fill="#88592c" opacity="0.29"/><circle cx="89.3" cy="9.4" r="0.49" fill="#88592c" opacity="0.20"/><circle cx="34.4" cy="5.9" r="0.38" fill="#88592c" opacity="0.29"/><circle cx="69.7" cy="86.9" r="0.29" fill="#88592c" opacity="0.18"/><circle cx="49.2" cy="11.3" r="0.96" fill="#88592c" opacity="0.28"/><circle cx="38.4" cy="8.1" r="0.39" fill="#88592c" opacity="0.30"/><circle cx="89.6" cy="9.6" r="0.60" fill="#88592c" opacity="0.27"/><circle cx="46.1" cy="6.2" r="0.60" fill="#88592c" opacity="0.15"/><circle cx="87.2" cy="87.4" r="1.03" fill="#88592c" opacity="0.15"/><circle cx="32.0" cy="85.4" r="0.61" fill="#88592c" opacity="0.23"/><circle cx="71.8" cy="81.4" r="0.28" fill="#88592c" opacity="0.19"/><circle cx="44.3" cy="6.9" r="0.31" fill="#88592c" opacity="0.28"/><circle cx="23.8" cy="82.5" r="1.04" fill="#88592c" opacity="0.27"/><circle cx="90.2" cy="82.6" r="0.45" fill="#88592c" opacity="0.31"/><circle cx="63.7" cy="81.1" r="0.32" fill="#88592c" opacity="0.20"/><circle cx="94.6" cy="88.0" r="0.62" fill="#88592c" opacity="0.19"/><circle cx="46.6" cy="10.4" r="0.90" fill="#88592c" opacity="0.35"/><circle cx="65.2" cy="6.1" r="0.78" fill="#88592c" opacity="0.19"/><circle cx="82.8" cy="85.8" r="0.71" fill="#88592c" opacity="0.22"/><circle cx="35.4" cy="87.4" r="0.72" fill="#88592c" opacity="0.23"/><circle cx="23.5" cy="10.2" r="0.28" fill="#88592c" opacity="0.22"/><circle cx="37.4" cy="10.1" r="0.76" fill="#88592c" opacity="0.13"/><circle cx="8.9" cy="8.9" r="0.96" fill="#88592c" opacity="0.21"/><path d="M3 11 20 9 37 11 59 8 82 10 99 8M2 82 21 84 42 82 61 85 82 83 100 85" fill="none" stroke="#fff0cb" stroke-width="1.2" opacity=".55"/><path d="M0 33 49 48 100 29M0 68 48 48 100 72" fill="none" stroke="#a4804c" stroke-width=".7" opacity=".20"/><path d="M0 34 49 49 100 30M0 69 48 49 100 73" fill="none" stroke="#fff5d4" stroke-width=".65" opacity=".7"/></g></svg>